# xmcd
#
# Track frame offsets: 
#        150
#        19969
#        33470
#        58668
#        79234
#        102931
#        119039
#        135744
#        152481
#        165324
#        182135
#
# Disc length: 2724 seconds
#
# Revision: 1
# Processed by: cddbd v1.5.2PL0 Copyright (c) Steve Scherf et al.
# Submitted via: ExactAudioCopy v1.3
#
DISCID=8f0aa20b
DTITLE=Various Artist - Рикошет and Балтийский Рэп
DYEAR=2000
DGENRE=Rap
TTITLE0=Фукс И Балтийский Клан - Один На Один
TTITLE1=С.Т.Д.К - Мама-Папа
TTITLE2=В.Л. И В.К. - Давай Не Думать О Плохом
TTITLE3=Рикошет и Фукс - Чувство Ритма
TTITLE4=A.Tone - Ты Скажи Мне
TTITLE5=Фукс И Кристина - Тихо
TTITLE6=Солдат - Не Стоит Пытаться
TTITLE7=Черный Снег - Городские Парни
TTITLE8=Рикошет, Вася Васин (Кирпичи), Ксения (Джан-Ку), Илья Черт (Пи
TTITLE8=лот), Машнин (Машнин-бэнд) - Атаман
TTITLE9=Фукс - Да
TTITLE10=Фукс И Балтийский Клан - Один На Один [Remix]
EXTD=
EXTT0=
EXTT1=
EXTT2=
EXTT3=
EXTT4=
EXTT5=
EXTT6=
EXTT7=
EXTT8=
EXTT9=
EXTT10=
PLAYORDER=
